<svg width="22" height="21" viewBox="0 0 22 21" fill="none" xmlns="http://www.w3.org/2000/svg">
<path d="M6.775 11.4517L9.84083 8.38589L2.23583 0.791726C1.42425 1.60565 0.968506 2.70816 0.968506 3.85756C0.968506 5.00696 1.42425 6.10947 2.23583 6.92339L6.775 11.4517ZM14.12 9.49089C15.1121 9.84023 16.1861 9.88453 17.2036 9.61808C18.2211 9.35163 19.1356 8.78665 19.8292 7.99589C21.8983 5.92673 22.2992 2.95839 20.7067 1.36589C19.1142 -0.226607 16.1567 0.174226 14.0767 2.24339C13.2859 2.93697 12.7209 3.85141 12.4545 4.86893C12.188 5.88645 12.2323 6.96044 12.5817 7.95256L2.00833 18.5259L3.53583 20.0534L11 12.6109L18.4533 20.0642L19.9808 18.5367L12.5275 11.0834L14.12 9.49089Z" fill="#E5E5E5"/>
</svg>
